<svg id="visual" viewBox="0 0 900 200" width="900" height="200" xmlns="http://www.w3.org/2000/svg" xmlns:xlink="http://www.w3.org/1999/xlink" version="1.1"><path d="M0 112L129 112L129 83L257 83L257 102L386 102L386 105L514 105L514 122L643 122L643 88L771 88L771 111L900 111L900 92L900 201L900 201L771 201L771 201L643 201L643 201L514 201L514 201L386 201L386 201L257 201L257 201L129 201L129 201L0 201Z" fill="#6294c3"></path><path d="M0 145L129 145L129 128L257 128L257 118L386 118L386 116L514 116L514 136L643 136L643 119L771 119L771 148L900 148L900 131L900 201L900 201L771 201L771 201L643 201L643 201L514 201L514 201L386 201L386 201L257 201L257 201L129 201L129 201L0 201Z" fill="#4f7098"></path><path d="M0 163L129 163L129 147L257 147L257 151L386 151L386 161L514 161L514 166L643 166L643 163L771 163L771 158L900 158L900 150L900 201L900 201L771 201L771 201L643 201L643 201L514 201L514 201L386 201L386 201L257 201L257 201L129 201L129 201L0 201Z" fill="#3a4e6e"></path></svg>