<svg id="visual" viewBox="0 0 900 100" width="900" height="100" xmlns="http://www.w3.org/2000/svg" xmlns:xlink="http://www.w3.org/1999/xlink" version="1.1"><path d="M0 97L129 97L129 100L257 100L257 71L386 71L386 98L514 98L514 109L643 109L643 100L771 100L771 78L900 78L900 114L900 0L900 0L771 0L771 0L643 0L643 0L514 0L514 0L386 0L386 0L257 0L257 0L129 0L129 0L0 0Z" fill="#6294c3"></path><path d="M0 69L129 69L129 70L257 70L257 72L386 72L386 55L514 55L514 80L643 80L643 83L771 83L771 47L900 47L900 72L900 0L900 0L771 0L771 0L643 0L643 0L514 0L514 0L386 0L386 0L257 0L257 0L129 0L129 0L0 0Z" fill="#4f7098"></path><path d="M0 26L129 26L129 34L257 34L257 32L386 32L386 51L514 51L514 42L643 42L643 43L771 43L771 20L900 20L900 39L900 0L900 0L771 0L771 0L643 0L643 0L514 0L514 0L386 0L386 0L257 0L257 0L129 0L129 0L0 0Z" fill="#3a4e6e"></path></svg>