<?xml version="1.0" standalone="no"?>
<!DOCTYPE svg PUBLIC "-//W3C//DTD SVG 20010904//EN"
 "http://www.w3.org/TR/2001/REC-SVG-20010904/DTD/svg10.dtd">
<svg version="1.0" xmlns="http://www.w3.org/2000/svg"
 width="102.000000pt" height="102.000000pt" viewBox="0 0 102.000000 102.000000"
 preserveAspectRatio="xMidYMid meet">
<metadata>
Created by potrace 1.14, written by Peter Selinger 2001-2017
</metadata>
<g transform="translate(0.000000,102.000000) scale(0.100000,-0.100000)"
fill="#000000" stroke="none">
<path d="M3 873 c-3 -8 -3 -78 -1 -156 4 -120 9 -153 31 -211 52 -140 160
-258 292 -321 105 -49 150 -55 430 -55 l255 0 1 58 c2 173 0 203 -21 282 -39
146 -157 289 -292 354 -40 19 -88 38 -107 41 -19 3 -39 9 -44 12 -6 4 -130 7
-275 8 -213 1 -265 -2 -269 -12z"/>
</g>
</svg>
